<svg width="76" height="95" viewBox="0 0 76 95" fill="none" xmlns="http://www.w3.org/2000/svg">
<path d="M0 70C0 66.6863 2.68629 64 6 64H76V76H6C2.68629 76 0 73.3137 0 70Z" fill="#FF4545"/>
<path d="M32 89C32 85.6863 34.6863 83 38 83H76V95H38C34.6863 95 32 92.3137 32 89Z" fill="#36A3FF"/>
<path d="M53.9784 43.7264C49.6492 43.7264 46.8312 41.6247 46.8312 38.2866C46.8312 34.9485 49.4858 32.9703 54.4685 32.6406L63.9028 31.9813V35.3194C63.9028 40.2647 59.492 43.7264 53.9784 43.7264ZM50.0985 52.5044C55.8571 52.5044 61.4115 49.702 63.862 44.9628H64.107V51.9687H75.6243V20.8543C75.6243 11.7878 68.0687 5.81223 56.5106 5.81223C45.2792 5.81223 37.5193 11.7878 37.1926 20.4422H48.0972C48.669 17.1453 51.6913 14.8375 56.0205 14.8375C60.9214 14.8375 63.9028 17.2277 63.9028 21.5961V24.6045L52.6715 25.3051C41.195 26.0057 34.9463 30.6625 34.9463 38.9047C34.9463 47.0233 41.4401 52.5044 50.0985 52.5044Z" fill="white"/>
<path d="M5.83963 0V9.60207H0V18.2635H5.83963V41.1126C5.83963 49.5389 9.75884 52.9094 19.7528 52.9094C22.0652 52.9094 24.1032 52.6742 25.2789 52.4391V43.9736C24.5735 44.0912 23.4369 44.1695 22.4179 44.1695C18.9298 44.1695 17.2837 42.5627 17.2837 39.2313V18.2635H25.2789V9.60207H17.2837V0H5.83963Z" fill="white"/>
</svg>
